<svg width="28" height="35" viewBox="0 0 28 35" fill="none" xmlns="http://www.w3.org/2000/svg">
<path d="M17.9463 23.4224C17.8295 22.1328 17.8743 21.2328 17.8743 20.0544C18.4583 19.748 19.5047 17.7944 19.6815 16.144C20.1407 16.1064 20.8647 15.6584 21.0767 13.8896C21.1911 12.94 20.7367 12.4056 20.4599 12.2376C21.2071 9.99041 22.7591 3.03841 17.5895 2.32001C17.0575 1.38561 15.6951 0.912811 13.9247 0.912811C6.84155 1.04321 5.98715 6.26161 7.53995 12.2376C7.26395 12.4056 6.80955 12.94 6.92315 13.8896C7.13595 15.6584 7.85915 16.1064 8.31835 16.144C8.49435 17.7936 9.58235 19.748 10.1679 20.0544C10.1679 21.2328 10.2119 22.1328 10.0951 23.4224C9.08635 26.1344 3.90555 26.3464 0.916748 28.9616C4.04155 32.108 9.10555 34.3584 14.4495 34.3584C19.7935 34.3584 26.0751 30.1392 27.1207 28.988C24.1503 26.3488 18.9575 26.144 17.9463 23.4224Z" fill="black"/>
</svg>
